<svg xmlns="http://www.w3.org/2000/svg" width="512" height="512" viewBox="0 0 512 512" version="1.1"><path d="" stroke="none" fill="currentColor" fill-rule="evenodd"/><path d="M 31.762 29.942 C 17.412 34.529, 5.816 46.437, 1.585 60.932 C 0.304 65.322, -0 71.775, 0 94.609 L 0 122.855 2.635 124.927 C 6.100 127.653, 9.253 127.547, 12.694 124.589 L 15.500 122.177 16 93.339 C 16.477 65.823, 16.604 64.306, 18.757 60.277 C 21.635 54.891, 26.891 49.635, 32.277 46.757 L 36.500 44.500 256 44.500 L 475.500 44.500 479.723 46.757 C 485.109 49.635, 490.365 54.891, 493.243 60.277 L 495.500 64.500 495.765 195.750 L 496.029 327 460.449 327 C 439.152 327, 424.134 327.393, 423.039 327.979 C 417.862 330.750, 419.171 339.818, 425.044 341.866 C 427.223 342.625, 439.509 343, 462.229 343 L 496.159 343 495.829 355.750 C 495.540 366.950, 495.200 369.087, 493.033 373.330 C 490.070 379.129, 484.413 384.454, 478.122 387.363 L 473.500 389.500 256 389.500 L 38.500 389.500 33.878 387.363 C 27.587 384.454, 21.930 379.129, 18.967 373.330 C 16.800 369.088, 16.460 366.950, 16.171 355.760 L 15.841 343.020 210.507 342.760 L 405.173 342.500 407.587 339.694 C 410.547 336.253, 410.653 333.100, 407.927 329.635 L 405.855 327 210.927 327 L 16 327 16 236.149 C 16 170.988, 15.679 144.378, 14.866 142.044 C 12.818 136.171, 3.750 134.862, 0.979 140.039 C 0.357 141.202, 0 183.040, 0 254.778 C 0 362.609, 0.084 367.932, 1.877 373.142 C 7.156 388.485, 16.130 397.667, 31.642 403.595 C 36.171 405.326, 41.120 405.473, 104.750 405.771 C 142.288 405.947, 173 406.416, 173 406.814 C 173 407.510, 154.107 460.619, 151.857 466.250 L 150.757 469 123.333 469 L 95.909 469 93.455 471.455 C 90.475 474.434, 90.250 478.853, 92.912 482.139 L 94.823 484.500 256 484.500 L 417.177 484.500 419.088 482.139 C 421.750 478.853, 421.525 474.434, 418.545 471.455 L 416.091 469 388.667 469 L 361.243 469 360.143 466.250 C 357.893 460.619, 339 407.510, 339 406.814 C 339 406.416, 369.713 405.947, 407.250 405.771 C 470.880 405.473, 475.829 405.326, 480.358 403.595 C 495.577 397.779, 505.494 387.708, 509.994 373.500 C 510.691 371.300, 511.661 368.993, 512.151 368.373 C 513.226 367.012, 513.169 63.777, 512.094 64.442 C 511.686 64.694, 510.784 62.682, 510.089 59.970 C 507.643 50.427, 498.745 39.408, 488.875 33.701 C 478.333 27.605, 494.452 27.995, 255.568 28.054 C 46.901 28.105, 37.253 28.187, 31.762 29.942 M 0.442 94 C 0.442 110.225, 0.580 116.862, 0.748 108.750 C 0.916 100.637, 0.916 87.362, 0.748 79.250 C 0.580 71.137, 0.442 77.775, 0.442 94 M 154.500 136.403 C 152.850 137.131, 150.708 138.616, 149.740 139.704 C 147.509 142.209, 100.244 235.435, 99.149 239.488 C 98.057 243.536, 99.396 248.084, 102.557 251.055 C 105.144 253.487, 105.281 253.502, 129.079 253.815 L 153 254.131 153 266.642 C 153 279.064, 153.020 279.174, 155.850 282.003 C 161.074 287.228, 170.873 286.954, 176.060 281.439 C 178.331 279.025, 178.523 277.984, 178.832 266.422 L 179.163 254 181.614 254 C 188.036 254, 193.588 249.281, 194.064 243.417 C 194.818 234.142, 191.660 229.422, 184.020 228.408 L 179.175 227.766 178.838 212.299 L 178.500 196.833 175.234 193.916 C 169.613 188.896, 157.165 190.087, 154.030 195.945 C 153.454 197.020, 153 204.514, 153 212.934 L 153 228 143 228 C 137.500 228, 133 227.773, 133 227.495 C 133 227.217, 141.775 209.445, 152.500 188 C 163.820 165.367, 172 147.843, 172 146.228 C 172 142.335, 169.438 139.103, 164.617 136.914 C 159.757 134.706, 158.488 134.642, 154.500 136.403 M 250.500 135.612 C 228.262 138.423, 216.665 148.066, 211.487 168.052 C 210.298 172.638, 210 181.389, 210 211.666 C 210 245.303, 210.205 250.282, 211.830 256.144 C 214.156 264.532, 217.671 270.520, 223.330 275.736 C 231.608 283.367, 242.152 286.958, 256.356 286.985 C 280.006 287.030, 295.644 275.502, 301.103 254 C 303.096 246.153, 303.116 175.973, 301.129 168 C 297.126 151.947, 285.763 140.514, 270.500 137.182 C 264.466 135.865, 254.615 135.092, 250.500 135.612 M 373.500 136.412 C 371.850 137.145, 369.555 138.815, 368.401 140.123 C 367.246 141.430, 355.374 164.100, 342.018 190.500 C 316.754 240.440, 315.871 242.652, 318.924 248.358 C 321.511 253.191, 323.032 253.480, 347.649 253.816 L 370.798 254.131 371.149 266.648 L 371.500 279.165 374.706 282.029 C 380.517 287.221, 389.881 286.949, 395.060 281.437 C 397.328 279.024, 397.525 277.963, 397.853 266.420 L 398.206 254 400.702 254 C 404.610 254, 409.946 251.006, 411.544 247.915 C 413.450 244.229, 413.398 237.671, 411.434 233.872 C 409.783 230.679, 404.808 228, 400.532 228 L 398 228 397.944 214.750 C 397.912 207.235, 397.371 200.007, 396.694 198.049 C 393.354 188.393, 375.646 188.393, 372.306 198.049 C 371.629 200.007, 371.088 207.235, 371.056 214.750 L 371 228 361.500 228 C 356.275 228, 352 227.773, 352 227.495 C 352 227.217, 360.775 209.445, 371.500 188 C 382.225 166.555, 391 148.085, 391 146.955 C 391 143.052, 387.952 138.881, 383.684 136.943 C 378.750 134.703, 377.492 134.638, 373.500 136.412 M 0.483 255 C 0.483 317.975, 0.603 343.738, 0.750 312.250 C 0.896 280.763, 0.896 229.238, 0.750 197.750 C 0.603 166.263, 0.483 192.025, 0.483 255 M 246.421 161.834 C 241.517 164.136, 238.374 167.898, 236.957 173.160 C 236.287 175.647, 236.014 190.175, 236.204 213.279 C 236.485 247.726, 236.602 249.696, 238.584 253.500 C 241.530 259.155, 247.403 262.239, 255.343 262.299 C 263.152 262.358, 268.273 260.653, 271.381 256.959 C 276.267 251.152, 276.500 249.038, 276.500 210.500 C 276.500 174.861, 276.477 174.453, 274.179 169.788 C 270.966 163.263, 266.641 160.785, 257.626 160.301 C 252.103 160.004, 249.582 160.349, 246.421 161.834 M 179.492 436.622 C 173.446 453.464, 168.350 467.639, 168.167 468.122 C 167.977 468.622, 205.782 469, 256 469 C 306.218 469, 344.023 468.622, 343.833 468.122 C 343.650 467.639, 338.554 453.464, 332.508 436.622 L 321.517 406 256 406 L 190.483 406 179.492 436.622" stroke="none" fill="currentColor" fill-rule="evenodd"/></svg>