<svg width="72" height="69" viewBox="0 0 72 69" fill="none" xmlns="http://www.w3.org/2000/svg">
<path fill-rule="evenodd" clip-rule="evenodd" d="M36.496 0.0895355C32.9564 0.652857 29.8397 2.22154 27.264 4.73594C25.2981 6.6552 23.628 9.36836 22.9581 11.7312C22.8277 12.1914 22.6934 12.6156 22.66 12.674C22.6265 12.7323 22.1745 12.3442 21.6557 11.8116C19.3336 9.42772 16.4779 8.14769 13.1037 7.97861C7.23973 7.68453 1.91061 11.6833 0.331961 17.5619C-0.107225 19.1975 -0.107225 22.3472 0.331961 23.9828C0.924446 26.1888 2.10124 28.2562 3.66749 29.8423L4.54375 30.7296L3.96268 30.8207C2.52972 31.0453 1.02167 32.217 0.367468 33.614L0 34.3988V49.8802V65.3615L0.386771 66.159C0.873863 67.1636 1.74716 68.0457 2.74657 68.5427L3.5225 68.9287L12.3248 68.9685C18.8051 68.9979 21.2321 68.9643 21.5252 68.8415C22.2131 68.5528 22.5039 67.6817 22.1643 66.9271C21.8082 66.1356 21.9365 66.1463 12.7937 66.146C3.40091 66.1459 3.73893 66.18 3.0674 65.162L2.74755 64.6772L2.74812 49.8947C2.74854 35.3957 2.75404 35.1032 3.02865 34.6472C3.18265 34.3914 3.51518 34.0546 3.76781 33.8987C4.22109 33.6187 4.52529 33.615 27.2786 33.6146L50.3301 33.614L50.8089 33.9379C51.8459 34.6395 51.7804 33.5638 51.7804 49.8802C51.7804 63.5223 51.7638 64.5382 51.534 64.9947C51.3986 65.2638 51.1087 65.6169 50.8901 65.7794C50.5005 66.0688 50.3132 66.0764 41.802 66.1463C37.0222 66.1855 32.9983 66.2736 32.8598 66.3419C32.556 66.4919 32.1957 67.1599 32.1957 67.5731C32.1957 68.0631 32.5775 68.6628 33.0032 68.8415C33.2963 68.9643 35.7233 68.9979 42.2036 68.9685L51.0059 68.9287L51.8039 68.5318C52.819 68.027 53.638 67.1976 54.1365 66.1697C54.5039 65.4119 54.5313 65.2258 54.5763 63.1856L54.624 61.0096H56.0225C57.3791 61.0096 57.4323 61.0219 57.8063 61.4196C58.2501 61.8916 66.4978 66.8156 67.3478 67.1161C68.0428 67.3618 69.2995 67.2729 69.9693 66.9308C70.6336 66.5913 71.333 65.8977 71.6954 65.2188L72 64.6481V49.8802V35.1122L71.6954 34.5415C71.333 33.8626 70.6336 33.169 69.9693 32.8295C69.2995 32.4874 68.0428 32.3985 67.3478 32.6442C66.4978 32.9447 58.2501 37.8688 57.8063 38.3408C57.4323 38.7384 57.3791 38.7507 56.0225 38.7507H54.624L54.5763 36.5748C54.5313 34.5345 54.5039 34.3484 54.1365 33.5906C53.6377 32.5623 52.8183 31.7326 51.8056 31.2309C51.1297 30.896 50.7909 30.8282 49.5635 30.7822L48.1176 30.7279L48.9982 30.0517C53.6344 26.4915 56.118 20.2447 55.2406 14.3509C54.6929 10.6717 53.138 7.55712 50.5303 4.91644C47.4074 1.75396 43.7047 0.135052 39.3112 0.0110586C38.2262 -0.0196187 36.9594 0.0157671 36.496 0.0895355ZM41.0892 3.00346C44.1082 3.53881 46.4778 4.79958 48.6342 7.01791C50.4235 8.85855 51.6592 11.1245 52.3037 13.747C52.6606 15.1991 52.6219 18.6299 52.2321 20.0839C51.512 22.7708 50.3142 24.8561 48.3947 26.7651C43.001 32.1291 34.4546 32.0707 29.0852 26.6333C26.2587 23.771 24.853 20.1064 25.058 16.1351C25.2458 12.4975 26.5697 9.46839 29.0852 6.92103C32.2838 3.68192 36.731 2.23053 41.0892 3.00346ZM36.7045 5.85474C32.5767 6.7508 29.52 9.61164 28.2292 13.7869C27.7531 15.3269 27.7533 18.2253 28.2294 19.7736C29.4308 23.6798 32.3308 26.5413 36.1409 27.5794C37.4005 27.9226 40.2355 27.9226 41.4951 27.5794C45.3346 26.5333 48.3213 23.5571 49.4086 19.6941C49.8616 18.0847 49.8616 15.4696 49.4086 13.8602C48.3295 10.0263 45.3265 7.01548 41.5656 5.99685C40.3952 5.67995 37.8524 5.60561 36.7045 5.85474ZM40.5228 8.70602C42.9112 9.21869 45.0995 10.9878 46.1482 13.2543C47.6543 16.5091 47.0545 20.0262 44.5629 22.5491C42.004 25.1401 38.4204 25.7603 35.1945 24.1707C34.0422 23.6029 32.177 21.7941 31.5905 20.676C31.3775 20.2698 31.0778 19.441 30.9245 18.834C29.4249 12.8963 34.6007 7.43469 40.5228 8.70602ZM14.5355 10.9953C15.2416 11.1301 16.1226 11.4464 16.9785 11.8723C18.0895 12.4254 18.5232 12.7473 19.5292 13.7661C20.5424 14.7923 20.848 15.2159 21.3922 16.3491C22.8253 19.3338 22.8253 22.2109 21.3922 25.1956C20.848 26.3288 20.5424 26.7524 19.5292 27.7786C18.5158 28.8047 18.0975 29.1142 16.9785 29.6652C15.5254 30.3806 14.0111 30.7603 12.6106 30.7603C11.21 30.7603 9.69577 30.3806 8.24266 29.6652C7.12363 29.1142 6.7053 28.8047 5.69195 27.7786C4.68592 26.7599 4.36805 26.3207 3.82192 25.1956C2.39474 22.2553 2.39474 19.2894 3.82192 16.3491C4.36805 15.224 4.68592 14.7848 5.69195 13.7661C6.6967 12.7487 7.13321 12.4244 8.24266 11.8711C10.3145 10.8379 12.279 10.5644 14.5355 10.9953ZM37.8209 11.9149C37.2596 12.4832 37.2584 13.1775 37.8173 13.8109C38.891 15.0278 40.7689 13.6865 40.0266 12.2328C39.5846 11.3672 38.5141 11.213 37.8209 11.9149ZM11.0049 14.4361C8.60182 15.025 6.66641 17.1798 6.24301 19.7379C5.52949 24.049 9.30124 27.9053 13.576 27.2353C14.9604 27.0183 15.9972 26.4927 17.0377 25.4811C21.8216 20.8291 17.4651 12.8532 11.0049 14.4361ZM34.3595 15.4918C33.5906 15.806 33.3477 17.0324 33.9217 17.7015C34.6085 18.5019 35.8087 18.2746 36.225 17.2654C36.3986 16.8446 36.399 16.7108 36.2281 16.2965C35.8891 15.4747 35.1646 15.1628 34.3595 15.4918ZM41.7472 15.7638C41.369 16.106 41.2901 16.2806 41.2901 16.7772C41.2901 17.2737 41.369 17.4484 41.7472 17.7905C42.257 18.2518 42.7169 18.3093 43.3296 17.9886C43.826 17.7286 44.0313 17.3742 44.0313 16.7772C44.0313 16.1802 43.826 15.8257 43.3296 15.5658C42.7169 15.245 42.257 15.3025 41.7472 15.7638ZM14.235 17.4592C14.8905 17.8009 15.5729 18.4997 15.9383 19.2028C16.2981 19.895 16.2981 21.6497 15.9383 22.3419C15.5762 23.0386 14.8957 23.7389 14.2309 24.0989C13.7989 24.3329 13.4206 24.4043 12.6106 24.4043C11.41 24.4043 10.7335 24.1243 9.98447 23.3176C9.22981 22.5047 9.02325 21.9576 9.02325 20.7723C9.02325 19.5869 9.22995 19.0396 9.98447 18.2276C10.4301 17.7478 10.9727 17.4035 11.6234 17.1872C12.2045 16.9942 13.6277 17.1423 14.235 17.4592ZM38.3091 19.3372C38.1455 19.4071 37.8699 19.6463 37.6969 19.8687C37.0284 20.7274 37.6771 22.0565 38.7647 22.0565C39.4142 22.0565 39.7518 21.8599 40.0266 21.3215C40.5991 20.2005 39.4354 18.8559 38.3091 19.3372ZM26.8103 28.3581C27.3983 28.9813 28.2546 29.7768 28.7131 30.1258L29.5465 30.7603H25.0969H20.6471L21.5384 29.8577C22.5757 28.8072 23.4496 27.5523 24.0528 26.247L24.4804 25.3217L25.1108 26.2733C25.4576 26.7967 26.2222 27.7348 26.8103 28.3581ZM69.0331 35.6434C69.2279 35.9251 69.2524 37.5128 69.2524 49.8802C69.2524 62.4928 69.231 63.8309 69.0236 64.1306C68.8564 64.3724 68.6924 64.4461 68.4132 64.4045C68.2032 64.3733 66.2772 63.3003 64.1331 62.0198L60.2348 59.6921V49.8793V40.0665L64.2084 37.6964C66.3937 36.3928 68.3241 35.3263 68.4978 35.3263C68.6715 35.3263 68.9125 35.4689 69.0331 35.6434ZM41.5424 37.8645C40.5605 38.2198 39.6442 38.9525 39.0542 39.8538C37.4616 42.2867 38.3942 45.523 41.0714 46.8545C41.73 47.1821 42.0286 47.2405 43.045 47.2405C44.0696 47.2405 44.3579 47.1831 45.0407 46.8437C46.0558 46.3389 46.8748 45.5094 47.3733 44.4815C47.7085 43.7901 47.7652 43.4981 47.7652 42.4605C47.7652 41.4229 47.7085 41.131 47.3733 40.4395C46.5619 38.7664 45.0661 37.7485 43.2807 37.6544C42.5468 37.6158 42.0708 37.6733 41.5424 37.8645ZM44.0457 40.7868C45.6224 41.8534 45.0968 44.1759 43.2265 44.407C42.5455 44.4912 41.8199 44.1221 41.3923 43.4739C40.2834 41.7929 42.3857 39.6639 44.0457 40.7868ZM57.4168 49.8802V58.1559H56.0078H54.5988V49.8802V41.6044H56.0078H57.4168V49.8802ZM8.25816 45.7988C7.54549 46.1987 7.54845 46.1653 7.54309 53.833C7.53774 61.526 7.54168 61.5699 8.26309 61.9478C8.84388 62.252 33.5671 62.252 34.1479 61.9478C34.8683 61.5705 34.8728 61.521 34.8728 53.8754C34.8728 46.2297 34.8683 46.1802 34.1479 45.8029C33.5909 45.5113 8.77752 45.5073 8.25816 45.7988ZM32.0548 53.8754V59.2974H21.2055H10.3562V53.8754V48.4533H21.2055H32.0548V53.8754ZM38.9744 51.5062C38.3016 51.8837 38.2647 52.122 38.2593 56.1298C38.254 60.206 38.3027 60.5057 39.0254 60.8391C39.6 61.1042 46.596 61.0758 47.1107 60.8063C47.7883 60.4514 47.8356 60.1477 47.8356 56.1583C47.8356 52.169 47.7883 51.8652 47.1107 51.5103C46.5671 51.2257 39.4807 51.222 38.9744 51.5062ZM45.0176 56.1583V58.1559H43.045H41.0724V56.1583V54.1607H43.045H45.0176V56.1583ZM26.5752 66.3455C25.3537 67.0311 25.8648 69 27.2642 69C27.9781 69 28.6732 68.303 28.6732 67.587C28.6732 66.5157 27.5041 65.824 26.5752 66.3455Z"/>
</svg>
