<svg xmlns="http://www.w3.org/2000/svg" width="512" height="512" viewBox="0 0 512 512" version="1.1"><path d="" stroke="none" fill="none" fill-rule="evenodd"/><path d="M 238 23.426 C 213.892 28.777, 192.951 42.859, 180.516 62.081 C 175.408 69.978, 13.300 350.502, 9.417 358.164 C -4.987 386.589, -2.861 421.734, 14.897 448.753 C 29.136 470.418, 50.108 484.344, 75.500 488.994 C 79.755 489.774, 133.138 490.007, 259 489.797 L 436.500 489.500 444.500 487.227 C 474.033 478.836, 497.526 456.317, 507.581 426.759 C 508.843 423.051, 510.180 417.983, 510.553 415.497 C 510.926 413.010, 511.629 410.729, 512.115 410.429 C 513.272 409.714, 513.271 386, 512.114 386 C 511.626 386, 510.923 383.971, 510.551 381.491 C 509.675 375.650, 506.022 364.960, 502.524 358 C 498.146 349.290, 335.151 67.171, 330.643 60.500 C 326.048 53.701, 315.089 42.529, 308.749 38.180 C 299.090 31.555, 286.070 26.086, 273.685 23.450 C 265.503 21.709, 245.794 21.696, 238 23.426 M 241.945 65.824 C 233.022 68.778, 226.209 73.005, 220.671 79.022 C 216.733 83.300, 195.493 119.279, 131.600 229.903 C 85.455 309.798, 46.567 377.942, 45.182 381.333 C 42.167 388.716, 41.199 400.825, 42.950 409.260 C 45.621 422.124, 55.714 435.904, 66.789 441.807 C 79.155 448.398, 66.993 448, 256.029 448 C 445.462 448, 431.601 448.462, 444.316 441.730 C 456.155 435.462, 466.231 421.838, 469.042 408.296 C 470.626 400.667, 469.765 388.801, 467.130 381.933 C 465.955 378.872, 446.182 343.772, 423.189 303.933 C 400.197 264.095, 362.303 198.425, 338.982 158 C 291.376 75.483, 291.668 75.906, 277.273 68.773 C 269.318 64.831, 268.471 64.633, 258.224 64.316 C 249.821 64.056, 246.297 64.382, 241.945 65.824 M 248.994 165.934 C 241.760 168.135, 235.899 173.288, 231.858 181 C 229.763 184.998, 229.507 186.782, 229.566 197 C 229.603 203.325, 231.089 232.984, 232.869 262.908 C 236.247 319.695, 236.505 321.655, 241.298 326.868 C 251.222 337.664, 271.368 333.068, 274.887 319.205 C 275.939 315.060, 282.565 203.193, 282.364 192.959 C 282.198 184.513, 279.125 177.292, 273.482 172.090 C 267.172 166.273, 256.608 163.618, 248.994 165.934 M 244.220 353.578 C 227.264 362.027, 224.523 384.488, 238.903 397.146 C 251.989 408.665, 272.103 404.393, 279.617 388.500 C 285.954 375.094, 279.365 358.229, 265.532 352.449 C 259.829 350.066, 250.248 350.574, 244.220 353.578 M 0.385 399 C 0.385 405.875, 0.545 408.688, 0.740 405.250 C 0.936 401.813, 0.936 396.188, 0.740 392.750 C 0.545 389.313, 0.385 392.125, 0.385 399" stroke="none" fill="currentColor" fill-rule="evenodd"/></svg>