<svg xmlns="http://www.w3.org/2000/svg" width="512" height="512" viewBox="0 0 512 512" version="1.1"><path d="" stroke="none" fill="none" fill-rule="evenodd"/><path d="M 318.628 1.518 C 282.668 7.336, 251.697 23.191, 225.972 48.954 C 211.319 63.628, 202.354 75.859, 194.056 92.500 C 174.744 131.225, 170.823 175.112, 183.017 216.056 C 189.060 236.349, 202.321 260.858, 215.128 275.409 C 217.258 277.828, 219 280.193, 219 280.666 C 219 281.138, 212.270 288.244, 204.043 296.457 C 190.068 310.409, 188.969 311.285, 187.293 309.815 C 181.193 304.462, 170.164 302.973, 162.500 306.470 C 159.713 307.741, 135.118 331.667, 81.365 385.397 C 7.027 459.704, 4.150 462.718, 2.027 468.500 C -0.878 476.414, -0.538 487.315, 2.828 494.195 C 5.755 500.177, 11.802 506.231, 17.805 509.187 C 24.631 512.550, 38.375 512.514, 45.500 509.115 C 49.495 507.209, 65.899 491.327, 127.101 430.115 C 180.432 376.774, 204.256 352.285, 205.528 349.500 C 209.027 341.840, 207.540 330.809, 202.185 324.707 C 200.715 323.031, 201.591 321.932, 215.543 307.957 C 223.756 299.730, 230.988 293, 231.615 293 C 232.242 293, 233.373 293.754, 234.128 294.676 C 234.882 295.597, 239.064 299, 243.419 302.237 C 271.361 323.003, 302.177 334.057, 336.500 335.625 C 366.156 336.979, 392.644 331.337, 419.500 317.944 C 436.136 309.648, 448.368 300.684, 463.052 286.028 C 486.894 262.233, 501.815 234.638, 509.209 200.664 C 511.121 191.883, 511.425 187.438, 511.443 168 C 511.462 148.227, 511.187 144.227, 509.176 135 C 494.426 67.340, 444.713 17.487, 377.500 2.953 C 364.405 0.121, 332.124 -0.666, 318.628 1.518 M 331.313 16.012 C 271.502 21.100, 220.154 61.134, 200.103 118.312 C 194.039 135.602, 192.580 145.241, 192.580 168 C 192.580 185.361, 192.911 189.982, 194.743 198.183 C 200.644 224.606, 212.760 248.979, 229.320 267.741 C 251.711 293.109, 280.023 309.720, 313.662 317.225 C 322.037 319.093, 326.548 319.420, 344 319.420 C 361.436 319.420, 366.023 319.089, 374.688 317.204 C 464.890 297.581, 517.379 206.332, 488.495 119.356 C 476.107 82.053, 447.660 49.374, 412.047 31.535 C 387.485 19.231, 358.649 13.687, 331.313 16.012 M 324.863 33.007 C 316.771 34.289, 303.838 37.702, 296.253 40.557 C 286.267 44.315, 270.641 52.807, 264.241 57.953 C 259.385 61.858, 258.453 63.134, 258.193 66.228 C 257.971 68.873, 258.456 70.456, 259.943 71.943 C 263.415 75.415, 267.470 74.596, 276.431 68.610 C 291.020 58.866, 303.891 53.487, 320.923 50.016 C 332.965 47.562, 352.803 47.314, 365.129 49.463 C 402.262 55.939, 434.390 79.801, 451.346 113.500 C 460.306 131.307, 464 147.283, 464 168.224 C 464 193.290, 457.548 214.372, 443.390 235.569 C 437.404 244.530, 436.585 248.585, 440.057 252.057 C 441.544 253.544, 443.127 254.029, 445.772 253.807 C 448.886 253.546, 450.149 252.607, 454.265 247.500 C 460.501 239.762, 471.240 218.025, 474.516 206.512 C 479.025 190.662, 480.262 180.185, 479.651 163 C 478.404 127.965, 466.375 99.112, 442.681 74.328 C 423.282 54.036, 400.770 41.281, 373 34.847 C 363.304 32.600, 334.400 31.495, 324.863 33.007 M 240.393 81.988 C 235.975 83.753, 225.590 99.473, 219.512 113.593 C 186.313 190.722, 229.496 278.977, 310.487 299.522 C 347.394 308.884, 385.710 302.608, 418.039 281.906 C 427.639 275.759, 430.333 272.897, 430.333 268.850 C 430.333 264.669, 425.833 260.576, 422.087 261.350 C 420.664 261.644, 415.090 264.803, 409.699 268.370 C 374.424 291.713, 328.966 294.407, 290.750 275.421 C 277.677 268.927, 270.575 263.752, 259.411 252.589 C 248.277 241.454, 242.837 233.989, 236.455 221.084 C 227.317 202.607, 223.485 184.250, 224.331 163 C 225.236 140.237, 231.448 120.709, 243.648 102.274 C 251.378 90.592, 252.060 88.291, 248.842 84.744 C 246.097 81.718, 243.328 80.814, 240.393 81.988 M 283.114 121.750 C 281.955 122.713, 280.726 124.950, 280.383 126.723 C 279.814 129.671, 280.324 130.531, 286.356 136.778 L 292.952 143.610 287.016 149.484 C 280.369 156.062, 278.930 159.718, 281.465 163.586 C 285.602 169.901, 290.590 169.016, 299.031 160.469 L 304.387 155.045 311.096 161.523 C 317.984 168.172, 319.539 168.848, 323.316 166.837 C 330.085 163.231, 329.658 158.553, 321.813 150.384 L 315.626 143.941 320.699 138.721 C 328.724 130.461, 329.832 126.741, 325.545 122.455 C 321.305 118.214, 317.791 119.074, 310.413 126.159 L 304 132.317 297.587 126.159 C 290.609 119.458, 287.145 118.403, 283.114 121.750 M 364.229 120.669 C 362.157 121.503, 359.911 126.798, 360.550 129.343 C 360.876 130.641, 363.798 134.332, 367.045 137.544 L 372.947 143.385 367.115 149.458 C 363.908 152.799, 360.967 156.530, 360.579 157.750 C 359.011 162.690, 365.310 168.989, 370.250 167.421 C 371.470 167.033, 375.201 164.092, 378.542 160.885 L 384.615 155.053 390.456 160.955 C 397.014 167.583, 399.722 168.712, 403.887 166.558 C 410.176 163.306, 409.561 158.453, 401.841 150.413 L 395.683 144 401.841 137.587 C 408.926 130.209, 409.786 126.695, 405.545 122.455 C 401.381 118.290, 398.022 119.112, 390.513 126.136 L 383.954 132.273 377.563 126.136 C 371.281 120.104, 368.484 118.957, 364.229 120.669 M 330.500 201.480 C 319.633 203.872, 310.674 208.180, 301.828 215.267 C 295.070 220.682, 294.529 226.679, 300.447 230.557 C 303.749 232.721, 306.701 231.927, 312.087 227.428 C 326.625 215.281, 348.281 212.511, 365.542 220.589 C 368.315 221.887, 373.253 225.021, 376.516 227.554 C 381.474 231.405, 382.944 232.065, 385.474 231.577 C 389.346 230.831, 392 227.624, 392 223.690 C 392 216.627, 373.715 204.801, 357.792 201.566 C 348.610 199.700, 338.725 199.669, 330.500 201.480 M 161.904 327.655 L 154.039 335.309 165.022 346.155 C 171.064 352.120, 176.379 357, 176.834 357 C 177.289 357, 180.888 353.673, 184.831 349.607 C 194.445 339.691, 194.410 339.039, 183.686 328.314 C 172.875 317.504, 172.352 317.488, 161.904 327.655 M 79.823 409.750 C 26.137 463.504, 17.002 473.069, 16.097 476.468 C 13.058 487.887, 24.122 498.949, 35.532 495.898 C 38.928 494.990, 48.580 485.770, 102.495 431.931 L 165.490 369.024 154.512 358.012 C 148.474 351.955, 143.300 347, 143.014 347 C 142.728 347, 114.292 375.238, 79.823 409.750" stroke="none" fill="currentColor" fill-rule="evenodd"/></svg>